<?xml version="1.0" standalone="no"?>
<!DOCTYPE svg PUBLIC "-//W3C//DTD SVG 20010904//EN"
 "http://www.w3.org/TR/2001/REC-SVG-20010904/DTD/svg10.dtd">
<svg version="1.0" xmlns="http://www.w3.org/2000/svg"
 width="300.000000pt" height="106.000000pt" viewBox="0 0 300.000000 106.000000"
 preserveAspectRatio="xMidYMid meet">
<metadata>
Created by potrace 1.10, written by Peter Selinger 2001-2011
</metadata>
<g transform="translate(0.000000,106.000000) scale(0.100000,-0.100000)"
fill="#ffffff" stroke="none">
<path d="M670 860 c-28 -28 -27 -84 2 -104 32 -23 74 -20 98 6 27 29 25 64 -5
93 -29 30 -68 32 -95 5z"/>
<path d="M2415 855 c-30 -30 -31 -54 -4 -89 41 -52 119 -25 119 42 0 66 -69
94 -115 47z"/>
<path d="M2170 725 c0 -63 -1 -65 -26 -65 -23 0 -25 -3 -22 -42 2 -35 7 -44
24 -46 20 -3 22 -11 26 -95 6 -106 23 -148 68 -167 32 -13 115 -9 130 6 5 5 4
28 -2 52 -8 34 -15 42 -34 42 -32 0 -46 30 -42 98 3 57 3 57 38 62 33 5 35 7
38 47 l3 42 -38 3 -38 3 -3 63 -3 62 -59 0 -60 0 0 -65z"/>
<path d="M384 660 c-12 -5 -25 -13 -29 -19 -9 -16 -25 -13 -25 4 0 12 -13 15
-60 15 l-60 0 0 -265 0 -265 60 0 60 0 0 105 0 105 37 -20 c62 -33 141 -24
191 23 80 74 83 207 6 279 -48 45 -124 61 -180 38z m80 -111 c19 -15 26 -30
26 -55 0 -47 -13 -69 -50 -84 -35 -15 -84 0 -100 31 -45 82 51 166 124 108z"/>
<path d="M945 658 c-86 -30 -130 -97 -123 -188 7 -98 73 -158 183 -168 100 -8
180 34 216 113 23 51 23 89 0 140 -42 94 -168 141 -276 103z m118 -99 c25 -11
47 -47 47 -74 0 -51 -53 -92 -103 -80 -64 16 -84 98 -33 141 30 26 53 30 89
13z"/>
<path d="M1432 651 c-39 -25 -42 -25 -42 -6 0 12 -13 15 -60 15 l-60 0 0 -175
0 -175 60 0 60 0 0 100 c0 109 10 142 47 159 34 16 50 14 73 -9 18 -18 20 -33
20 -135 l0 -115 60 0 60 0 0 133 c0 142 -7 166 -52 200 -40 30 -124 34 -166 8z"/>
<path d="M1785 656 c-88 -39 -129 -158 -86 -251 44 -95 149 -134 229 -85 39
24 42 24 42 5 0 -12 13 -15 60 -15 l60 0 0 175 0 175 -59 0 c-33 0 -61 -5 -63
-10 -2 -7 -16 -5 -40 5 -45 18 -103 19 -143 1z m161 -110 c35 -29 37 -87 5
-120 -30 -30 -97 -29 -122 3 -66 81 39 185 117 117z"/>
<path d="M2675 651 c-62 -28 -115 -104 -115 -166 0 -30 24 -88 47 -116 53 -62
153 -86 228 -55 19 8 35 17 35 20 0 3 -7 21 -17 40 -16 34 -17 35 -64 29 -43
-5 -50 -3 -73 22 -35 38 -35 87 0 122 22 22 32 25 74 21 46 -5 48 -4 64 29 22
47 21 51 -21 62 -56 16 -113 13 -158 -8z"/>
<path d="M660 485 l0 -175 60 0 60 0 0 175 0 175 -60 0 -60 0 0 -175z"/>
<path d="M2400 485 l0 -175 60 0 60 0 0 175 0 175 -60 0 -60 0 0 -175z"/>
</g>
</svg>
